<svg width="36" height="42" viewBox="0 0 36 42" fill="none" xmlns="http://www.w3.org/2000/svg">
<path d="M29.7406 21.8737C29.7406 18.5174 31.3138 16.0681 34.3678 14.1632C32.6094 11.714 30.0182 10.444 26.5941 10.1719C23.2625 9.89974 19.6532 11.9861 18.3576 11.9861C16.9694 11.9861 13.8229 10.2626 11.3242 10.2626C6.14176 10.3533 0.681641 14.2539 0.681641 22.3273C0.681641 24.6858 1.05182 27.135 1.97726 29.6749C3.18034 33.0312 7.43738 41.1953 11.8795 41.0139C14.1931 41.0139 15.8589 39.3811 18.9129 39.3811C21.8743 39.3811 23.355 41.0139 25.9463 41.0139C30.4809 41.0139 34.3678 33.5755 35.4783 30.2192C29.4629 27.4071 29.7406 22.0551 29.7406 21.8737ZM24.5581 6.99696C27.0568 4.09418 26.7792 1.37283 26.7792 0.375C24.5581 0.556424 21.9668 1.9171 20.4861 3.54991C18.8203 5.36415 17.8949 7.63194 18.08 10.0812C20.4861 10.2626 22.7072 9.08333 24.5581 6.99696Z" fill="#9CA3AF"/>
</svg>
